<svg xmlns="http://www.w3.org/2000/svg" viewBox="0 0 64 64" width="64" height="64">
  <rect width="64" height="64" rx="12" fill="#1f2430"/>
  <!-- car body -->
  <path d="M8 40 L13 27 C14 24 16.5 22 20 22 L44 22 C47.5 22 50 24 51 27 L56 40 L56 46 C56 47.1 55.1 48 54 48 L52 48 C50.9 48 50 47.1 50 46 L50 44 L14 44 L14 46 C14 47.1 13.1 48 12 48 L10 48 C8.9 48 8 47.1 8 46 Z" fill="#ffd21e" stroke="#d9a800" stroke-width="1.5" stroke-linejoin="round"/>
  <!-- cabin windows -->
  <path d="M18 27 C18.6 25.2 20 24 22 24 L30 24 L30 32 L15.5 32 Z" fill="#bfe6ff"/>
  <path d="M34 24 L42 24 C44 24 45.4 25.2 46 27 L48.5 32 L34 32 Z" fill="#bfe6ff"/>
  <!-- wheels -->
  <circle cx="20" cy="45" r="6" fill="#222"/>
  <circle cx="20" cy="45" r="2.5" fill="#ccc"/>
  <circle cx="44" cy="45" r="6" fill="#222"/>
  <circle cx="44" cy="45" r="2.5" fill="#ccc"/>
  <!-- headlight -->
  <circle cx="53" cy="38" r="2" fill="#fff6c4"/>
</svg>
